<svg xmlns="http://www.w3.org/2000/svg" width="1200" height="630" viewBox="0 0 1200 630">
  <defs>
    <linearGradient id="g" x1="0" x2="1" y1="0" y2="1">
      <stop offset="0" stop-color="#0ea5e9"/>
      <stop offset="1" stop-color="#22c55e"/>
    </linearGradient>
    <radialGradient id="r" cx="50%" cy="50%" r="75%">
      <stop offset="0" stop-color="#22c55e" stop-opacity="0.35"/>
      <stop offset="1" stop-color="#000" stop-opacity="0"/>
    </radialGradient>
  </defs>
  <rect width="1200" height="630" fill="#0b0b0c"/>
  <rect width="1200" height="630" fill="url(#r)"/>
  <g fill="none" stroke="#1f2937" stroke-width="1" opacity="0.35">
    <path d="M0 90h1200M0 180h1200M0 270h1200M0 360h1200M0 450h1200M0 540h1200"/>
    <path d="M100 0v630M200 0v630M300 0v630M400 0v630M500 0v630M600 0v630M700 0v630M800 0v630M900 0v630M1000 0v630M1100 0v630"/>
  </g>
  <text x="80" y="300" font-family="Inter, ui-sans-serif, system-ui" font-size="64" fill="white" font-weight="700">Hafiz Agha Al-Baith</text>
  <text x="80" y="360" font-family="Inter, ui-sans-serif, system-ui" font-size="28" fill="#9ca3af">Full‑Stack Developer · Cybersecurity</text>
  <rect x="80" y="400" width="360" height="8" rx="4" fill="url(#g)"/>
</svg>
